<svg id="booking" xmlns="http://www.w3.org/2000/svg" width="44" height="44" viewBox="0 0 44 44">
  <metadata><?xpacket begin="﻿" id="W5M0MpCehiHzreSzNTczkc9d"?>
<x:xmpmeta xmlns:x="adobe:ns:meta/" x:xmptk="Adobe XMP Core 5.6-c140 79.160451, 2017/05/06-01:08:21        ">
   <rdf:RDF xmlns:rdf="http://www.w3.org/1999/02/22-rdf-syntax-ns#">
      <rdf:Description rdf:about=""/>
   </rdf:RDF>
</x:xmpmeta>
                                                                                                    
                                                                                                    
                                                                                                    
                                                                                                    
                                                                                                    
                                                                                                    
                                                                                                    
                                                                                                    
                                                                                                    
                                                                                                    
                                                                                                    
                                                                                                    
                                                                                                    
                                                                                                    
                                                                                                    
                                                                                                    
                                                                                                    
                                                                                                    
                                                                                                    
                                                                                                    
                           
<?xpacket end="w"?></metadata>
<defs>
    <style>
      .cls-1 {
        fill: #d1d1d1;
        fill-rule: evenodd;
      }
    </style>
  </defs>
  <g id="step_1" data-name="step 1">
    <path class="cls-1" d="M19.9,30.4h4.2v4.2H19.9V30.4ZM22,1A21,21,0,1,0,43,22,21,21,0,0,0,22,1Zm0,38.2A17.2,17.2,0,1,1,39.2,22,17.2,17.2,0,0,1,22,39.2Zm8.169-23.394a8.4,8.4,0,0,0-16.569,2h4.2a4.215,4.215,0,1,1,8.4.714A4.368,4.368,0,0,1,21.769,22,1.869,1.869,0,0,0,19.9,23.869h0V28.3h4.2V25.906A8.4,8.4,0,0,0,30.169,15.805Z"/>
  </g>
</svg>
