<svg id="booking" xmlns="http://www.w3.org/2000/svg" width="21" height="19" viewBox="0 0 21 19">
  <metadata><?xpacket begin="﻿" id="W5M0MpCehiHzreSzNTczkc9d"?>
<x:xmpmeta xmlns:x="adobe:ns:meta/" x:xmptk="Adobe XMP Core 5.6-c140 79.160451, 2017/05/06-01:08:21        ">
   <rdf:RDF xmlns:rdf="http://www.w3.org/1999/02/22-rdf-syntax-ns#">
      <rdf:Description rdf:about=""/>
   </rdf:RDF>
</x:xmpmeta>
                                                                                                    
                                                                                                    
                                                                                                    
                                                                                                    
                                                                                                    
                                                                                                    
                                                                                                    
                                                                                                    
                                                                                                    
                                                                                                    
                                                                                                    
                                                                                                    
                                                                                                    
                                                                                                    
                                                                                                    
                                                                                                    
                                                                                                    
                                                                                                    
                                                                                                    
                                                                                                    
                           
<?xpacket end="w"?></metadata>
<defs>
    <style>
      .cls-1 {
        fill: #a5a5a5;
        fill-rule: evenodd;
      }
    </style>
  </defs>
  <g id="step_2" data-name="step 2">
    <g id="summary">
      <path id="Forma_1" data-name="Forma 1" class="cls-1" d="M0.742,19H20.258A0.726,0.726,0,0,0,21,18.274V2.072a0.726,0.726,0,0,0-.742-0.726H16.587V0.726a0.742,0.742,0,0,0-1.483,0v0.62H6.023V0.726a0.742,0.742,0,0,0-1.483,0v0.62h-3.8A0.726,0.726,0,0,0,0,2.072v16.22A0.734,0.734,0,0,0,.742,19ZM1.483,2.8H4.54v0.39a0.742,0.742,0,0,0,1.483,0V2.8H15.1v0.39a0.742,0.742,0,0,0,1.483,0V2.8h2.948V4.675H1.483V2.8Zm0,3.329H19.517V17.566H1.483V6.127ZM15.845,9.456H5.173a0.726,0.726,0,1,0,0,1.452H15.845A0.726,0.726,0,1,0,15.845,9.456Zm-5.336,3.506H5.173a0.726,0.726,0,1,0,0,1.452h5.336A0.726,0.726,0,1,0,10.509,12.962Z"/>
    </g>
  </g>
</svg>
