<svg id="booking" xmlns="http://www.w3.org/2000/svg" width="157" height="104" viewBox="0 0 157 104">
  <metadata><?xpacket begin="﻿" id="W5M0MpCehiHzreSzNTczkc9d"?>
<x:xmpmeta xmlns:x="adobe:ns:meta/" x:xmptk="Adobe XMP Core 5.6-c140 79.160451, 2017/05/06-01:08:21        ">
   <rdf:RDF xmlns:rdf="http://www.w3.org/1999/02/22-rdf-syntax-ns#">
      <rdf:Description rdf:about=""/>
   </rdf:RDF>
</x:xmpmeta>
                                                                                                    
                                                                                                    
                                                                                                    
                                                                                                    
                                                                                                    
                                                                                                    
                                                                                                    
                                                                                                    
                                                                                                    
                                                                                                    
                                                                                                    
                                                                                                    
                                                                                                    
                                                                                                    
                                                                                                    
                                                                                                    
                                                                                                    
                                                                                                    
                                                                                                    
                                                                                                    
                           
<?xpacket end="w"?></metadata>
<defs>
    <style>
      .cls-1 {
        fill: #56ab0a;
        fill-rule: evenodd;
      }
    </style>
  </defs>
  <g id="step_2" data-name="step 2">
    <path id="Forma_1_copy_4" data-name="Forma 1 copy 4" class="cls-1" d="M109.614,0H47.386A47.383,47.383,0,0,0,0,47.381v9.239A47.383,47.383,0,0,0,47.386,104h62.228A47.383,47.383,0,0,0,157,56.619V47.381A47.382,47.382,0,0,0,109.614,0Zm-5.377,94.953H52.773a42.954,42.954,0,1,1,0-85.908h51.464A42.954,42.954,0,1,1,104.237,94.951Zm0-64.977H52.773a22.023,22.023,0,1,0,0,44.045h51.464A22.023,22.023,0,0,0,104.237,29.974Zm0-13.082H52.773a35.105,35.105,0,1,0,0,70.21h51.464A35.105,35.105,0,0,0,104.237,16.892Zm0,64.977H52.773a29.872,29.872,0,1,1,0-59.744h51.464A29.872,29.872,0,1,1,104.237,81.869Zm-11.388-38.4L74.465,61.849l-2.121-2.121h0l-9.193-9.192,2.121-2.121,9.192,9.192L90.728,41.343Z"/>
  </g>
</svg>
