<svg id="booking" xmlns="http://www.w3.org/2000/svg" width="19" height="19" viewBox="0 0 19 19">
  <metadata><?xpacket begin="﻿" id="W5M0MpCehiHzreSzNTczkc9d"?>
<x:xmpmeta xmlns:x="adobe:ns:meta/" x:xmptk="Adobe XMP Core 5.6-c140 79.160451, 2017/05/06-01:08:21        ">
   <rdf:RDF xmlns:rdf="http://www.w3.org/1999/02/22-rdf-syntax-ns#">
      <rdf:Description rdf:about=""/>
   </rdf:RDF>
</x:xmpmeta>
                                                                                                    
                                                                                                    
                                                                                                    
                                                                                                    
                                                                                                    
                                                                                                    
                                                                                                    
                                                                                                    
                                                                                                    
                                                                                                    
                                                                                                    
                                                                                                    
                                                                                                    
                                                                                                    
                                                                                                    
                                                                                                    
                                                                                                    
                                                                                                    
                                                                                                    
                                                                                                    
                           
<?xpacket end="w"?></metadata>
<defs>
    <style>
      .cls-1 {
        fill: #a5a5a5;
        fill-rule: evenodd;
      }
    </style>
  </defs>
  <g id="step_2" data-name="step 2">
    <g id="summary">
      <path id="Forma_1" data-name="Forma 1" class="cls-1" d="M15.745,12.382a3.214,3.214,0,0,0-2.355,1.031L6.467,9.965a3.069,3.069,0,0,0,0-.977l6.913-3.41a3.215,3.215,0,0,0,2.363,1.04A3.281,3.281,0,0,0,19,3.309a3.253,3.253,0,1,0-6.5,0,3.41,3.41,0,0,0,.038.482L5.618,7.2a3.214,3.214,0,0,0-2.363-1.04,3.309,3.309,0,0,0,0,6.617,3.214,3.214,0,0,0,2.355-1.031L12.532,15.2a3.383,3.383,0,0,0-.04.495A3.253,3.253,0,1,0,15.745,12.382Z"/>
    </g>
  </g>
</svg>
