<svg id="topbar" xmlns="http://www.w3.org/2000/svg" width="44" height="29" viewBox="0 0 44 29">
  <metadata><?xpacket begin="﻿" id="W5M0MpCehiHzreSzNTczkc9d"?>
<x:xmpmeta xmlns:x="adobe:ns:meta/" x:xmptk="Adobe XMP Core 5.6-c140 79.160451, 2017/05/06-01:08:21        ">
   <rdf:RDF xmlns:rdf="http://www.w3.org/1999/02/22-rdf-syntax-ns#">
      <rdf:Description rdf:about=""/>
   </rdf:RDF>
</x:xmpmeta>
                                                                                                    
                                                                                                    
                                                                                                    
                                                                                                    
                                                                                                    
                                                                                                    
                                                                                                    
                                                                                                    
                                                                                                    
                                                                                                    
                                                                                                    
                                                                                                    
                                                                                                    
                                                                                                    
                                                                                                    
                                                                                                    
                                                                                                    
                                                                                                    
                                                                                                    
                                                                                                    
                           
<?xpacket end="w"?></metadata>
<defs>
    <style>
      .cls-1 {
        fill: #56ab0a;
        fill-rule: evenodd;
      }
    </style>
  </defs>
  <path id="Forma_1" data-name="Forma 1" class="cls-1" d="M30.72,0H13.28A13.246,13.246,0,0,0,0,13.212v2.576A13.246,13.246,0,0,0,13.28,29H30.72A13.246,13.246,0,0,0,44,15.788V13.212A13.246,13.246,0,0,0,30.72,0ZM29.213,26.477H14.79a11.978,11.978,0,1,1,0-23.955H29.213A11.978,11.978,0,1,1,29.213,26.477Zm0-18.119H14.79a6.141,6.141,0,1,0,0,12.282H29.213A6.141,6.141,0,1,0,29.213,8.358Zm0-3.648H14.79a9.789,9.789,0,1,0,0,19.578H29.213A9.789,9.789,0,1,0,29.213,4.71Zm0,18.119H14.79a8.33,8.33,0,1,1,0-16.659H29.213A8.33,8.33,0,1,1,29.213,22.829Z"/>
</svg>
