<svg id="matchs" xmlns="http://www.w3.org/2000/svg" width="34" height="34" viewBox="0 0 34 34">
  <metadata><?xpacket begin="﻿" id="W5M0MpCehiHzreSzNTczkc9d"?>
<x:xmpmeta xmlns:x="adobe:ns:meta/" x:xmptk="Adobe XMP Core 5.6-c140 79.160451, 2017/05/06-01:08:21        ">
   <rdf:RDF xmlns:rdf="http://www.w3.org/1999/02/22-rdf-syntax-ns#">
      <rdf:Description rdf:about=""/>
   </rdf:RDF>
</x:xmpmeta>
                                                                                                    
                                                                                                    
                                                                                                    
                                                                                                    
                                                                                                    
                                                                                                    
                                                                                                    
                                                                                                    
                                                                                                    
                                                                                                    
                                                                                                    
                                                                                                    
                                                                                                    
                                                                                                    
                                                                                                    
                                                                                                    
                                                                                                    
                                                                                                    
                                                                                                    
                                                                                                    
                           
<?xpacket end="w"?></metadata>
<defs>
    <style>
      .cls-1 {
        fill-rule: evenodd;
      }
    </style>
  </defs>
  <path class="cls-1" d="M17,27.78a0.953,0.953,0,0,0-.953.952v4.315a0.952,0.952,0,0,0,1.9,0V28.733A0.953,0.953,0,0,0,17,27.78ZM17,0a0.953,0.953,0,0,0-.953.952V5.267a0.952,0.952,0,0,0,1.9,0V0.952A0.953,0.953,0,0,0,17,0ZM11.61,26.336a0.952,0.952,0,0,0-1.3.349L8.151,30.421a0.952,0.952,0,1,0,1.65.952l2.157-3.737A0.952,0.952,0,0,0,11.61,26.336ZM25.5,2.278a0.952,0.952,0,0,0-1.3.349L22.042,6.363a0.952,0.952,0,0,0,1.65.952l2.157-3.737A0.952,0.952,0,0,0,25.5,2.278ZM7.664,22.39a0.952,0.952,0,0,0-1.3-.349L2.626,24.2a0.952,0.952,0,1,0,.952,1.649l3.737-2.157A0.952,0.952,0,0,0,7.664,22.39ZM31.722,8.5a0.953,0.953,0,0,0-1.3-.349l-3.737,2.157a0.952,0.952,0,1,0,.952,1.649L31.374,9.8A0.952,0.952,0,0,0,31.722,8.5ZM5.267,16.048H0.952a0.952,0.952,0,1,0,0,1.9H5.267A0.952,0.952,0,0,0,5.267,16.048Zm27.781,0H28.733a0.952,0.952,0,0,0,0,1.9h4.315A0.952,0.952,0,0,0,33.048,16.048ZM7.315,10.309L3.579,8.151A0.952,0.952,0,0,0,2.626,9.8l3.737,2.157A0.952,0.952,0,0,0,7.315,10.309ZM31.374,24.2l-3.737-2.157a0.952,0.952,0,1,0-.953,1.649l3.737,2.157A0.952,0.952,0,1,0,31.374,24.2ZM11.958,6.363L9.8,2.626a0.952,0.952,0,0,0-1.65.952l2.157,3.737A0.952,0.952,0,0,0,11.958,6.363Zm13.89,24.059-2.157-3.737a0.952,0.952,0,0,0-1.65.952L24.2,31.374A0.952,0.952,0,1,0,25.849,30.421ZM17,0a0.953,0.953,0,0,0-.953.952V5.267a0.952,0.952,0,0,0,1.9,0V0.952A0.953,0.953,0,0,0,17,0Zm0,27.78a0.953,0.953,0,0,0-.953.952v4.315a0.952,0.952,0,0,0,1.9,0V28.733A0.953,0.953,0,0,0,17,27.78Z"/>
</svg>
