<svg id="matchs" xmlns="http://www.w3.org/2000/svg" width="35" height="23" viewBox="0 0 35 23">
  <metadata><?xpacket begin="﻿" id="W5M0MpCehiHzreSzNTczkc9d"?>
<x:xmpmeta xmlns:x="adobe:ns:meta/" x:xmptk="Adobe XMP Core 5.6-c140 79.160451, 2017/05/06-01:08:21        ">
   <rdf:RDF xmlns:rdf="http://www.w3.org/1999/02/22-rdf-syntax-ns#">
      <rdf:Description rdf:about=""/>
   </rdf:RDF>
</x:xmpmeta>
                                                                                                    
                                                                                                    
                                                                                                    
                                                                                                    
                                                                                                    
                                                                                                    
                                                                                                    
                                                                                                    
                                                                                                    
                                                                                                    
                                                                                                    
                                                                                                    
                                                                                                    
                                                                                                    
                                                                                                    
                                                                                                    
                                                                                                    
                                                                                                    
                                                                                                    
                                                                                                    
                           
<?xpacket end="w"?></metadata>
<defs>
    <style>
      .cls-1 {
        fill: #a5a5a5;
        fill-rule: evenodd;
      }
    </style>
  </defs>
  <g id="match_copy" data-name="match copy">
    <path id="Forma_1_copy_5" data-name="Forma 1 copy 5" class="cls-1" d="M24.436,0H10.564A10.521,10.521,0,0,0,0,10.478v2.043A10.521,10.521,0,0,0,10.564,23H24.436A10.521,10.521,0,0,0,35,12.522V10.478A10.521,10.521,0,0,0,24.436,0Zm-1.2,21H11.765a9.5,9.5,0,1,1,0-19H23.238A9.5,9.5,0,1,1,23.238,21Zm0-14.37H11.765a4.871,4.871,0,1,0,0,9.741H23.238A4.871,4.871,0,1,0,23.238,6.629Zm0-2.893H11.765a7.764,7.764,0,1,0,0,15.527H23.238A7.764,7.764,0,1,0,23.238,3.736Zm0,14.37H11.765a6.607,6.607,0,1,1,0-13.213H23.238A6.606,6.606,0,1,1,23.238,18.106Z"/>
  </g>
</svg>
