<svg id="matchs" xmlns="http://www.w3.org/2000/svg" width="33" height="33" viewBox="0 0 33 33">
  <metadata><?xpacket begin="﻿" id="W5M0MpCehiHzreSzNTczkc9d"?>
<x:xmpmeta xmlns:x="adobe:ns:meta/" x:xmptk="Adobe XMP Core 5.6-c140 79.160451, 2017/05/06-01:08:21        ">
   <rdf:RDF xmlns:rdf="http://www.w3.org/1999/02/22-rdf-syntax-ns#">
      <rdf:Description rdf:about=""/>
   </rdf:RDF>
</x:xmpmeta>
                                                                                                    
                                                                                                    
                                                                                                    
                                                                                                    
                                                                                                    
                                                                                                    
                                                                                                    
                                                                                                    
                                                                                                    
                                                                                                    
                                                                                                    
                                                                                                    
                                                                                                    
                                                                                                    
                                                                                                    
                                                                                                    
                                                                                                    
                                                                                                    
                                                                                                    
                                                                                                    
                           
<?xpacket end="w"?></metadata>
<defs>
    <style>
      .cls-1 {
        fill: #a5a5a5;
        fill-rule: evenodd;
      }
    </style>
  </defs>
  <g id="match">
    <path class="cls-1" d="M19.505,12.506V15.65a2.24,2.24,0,0,0,.636,1.559v1.068a0.829,0.829,0,0,0,1.657,0V16.826a0.827,0.827,0,0,0-.368-0.684,0.584,0.584,0,0,1-.268-0.492V12.506a2.011,2.011,0,0,1,2.009-2h0.678a2.011,2.011,0,0,1,2.009,2V15.65a0.584,0.584,0,0,1-.268.492,0.806,0.806,0,0,0-.368.684v3.027a0.975,0.975,0,0,0,.544.867,24.193,24.193,0,0,1,4.327,2.76,0.7,0.7,0,0,1,.251.542v1.326H24.535a0.826,0.826,0,1,0,0,1.651h6.637A0.824,0.824,0,0,0,32,26.174V24.023a2.327,2.327,0,0,0-.862-1.818,26.42,26.42,0,0,0-4.26-2.777V17.2a2.24,2.24,0,0,0,.636-1.559V12.5a3.663,3.663,0,0,0-3.666-3.653H23.171A3.676,3.676,0,0,0,19.505,12.506Zm-3.03.042V8.487A4.5,4.5,0,0,0,11.973,4H11.094a4.5,4.5,0,0,0-4.5,4.486v4.061a2.656,2.656,0,0,0,.82,1.918v3.127A32.829,32.829,0,0,0,1.8,21.229a2.771,2.771,0,0,0-1.021,2.16v2.785A0.824,0.824,0,0,0,1.612,27H21.447a0.824,0.824,0,0,0,.829-0.826V23.389a2.771,2.771,0,0,0-1.021-2.16,33.377,33.377,0,0,0-5.607-3.636V14.466A2.618,2.618,0,0,0,16.475,12.548Zm3.733,9.957a1.134,1.134,0,0,1,.418.884v1.96H2.449v-1.96a1.134,1.134,0,0,1,.419-0.884,31.371,31.371,0,0,1,5.641-3.611,1.018,1.018,0,0,0,.569-0.9v-3.92a0.827,0.827,0,0,0-.368-0.684,1,1,0,0,1-.452-0.834V8.495A2.843,2.843,0,0,1,11.1,5.66h0.879a2.844,2.844,0,0,1,2.846,2.835v4.061a0.993,0.993,0,0,1-.452.834,0.807,0.807,0,0,0-.368.684v3.92a1.008,1.008,0,0,0,.569.9A32.261,32.261,0,0,1,20.208,22.505Z"/>
  </g>
</svg>
