<svg id="matchs" xmlns="http://www.w3.org/2000/svg" width="123" height="21" viewBox="0 0 123 21">
  <metadata><?xpacket begin="﻿" id="W5M0MpCehiHzreSzNTczkc9d"?>
<x:xmpmeta xmlns:x="adobe:ns:meta/" x:xmptk="Adobe XMP Core 5.6-c140 79.160451, 2017/05/06-01:08:21        ">
   <rdf:RDF xmlns:rdf="http://www.w3.org/1999/02/22-rdf-syntax-ns#">
      <rdf:Description rdf:about=""/>
   </rdf:RDF>
</x:xmpmeta>
                                                                                                    
                                                                                                    
                                                                                                    
                                                                                                    
                                                                                                    
                                                                                                    
                                                                                                    
                                                                                                    
                                                                                                    
                                                                                                    
                                                                                                    
                                                                                                    
                                                                                                    
                                                                                                    
                                                                                                    
                                                                                                    
                                                                                                    
                                                                                                    
                                                                                                    
                                                                                                    
                           
<?xpacket end="w"?></metadata>
<defs>
    <style>
      .cls-1 {
        fill: #e7e7e7;
        fill-rule: evenodd;
      }
    </style>
  </defs>
  <g id="match_copy_5" data-name="match copy 5">
    <path id="rating_copy_7" data-name="rating copy 7" class="cls-1" d="M117.9,13.522L118.823,21l-6.756-3.2L105.31,21l0.926-7.478-5.1-5.5L108.463,6.6l3.6-6.6,3.6,6.6L123,8.022ZM93.312,21l-6.757-3.2L79.8,21l0.926-7.478-5.1-5.5L82.952,6.6l3.6-6.6,3.6,6.6,7.329,1.422-5.1,5.5ZM67.8,21l-6.756-3.2L54.288,21l0.926-7.478-5.1-5.5L57.441,6.6l3.6-6.6,3.6,6.6,7.329,1.422-5.1,5.5ZM42.29,21l-6.756-3.2L28.777,21,29.7,13.522l-5.1-5.5L31.93,6.6l3.6-6.6,3.6,6.6,7.329,1.422-5.1,5.5Zm-24.6,0-6.757-3.2L4.177,21,5.1,13.522,0,8.022,7.33,6.6l3.6-6.6,3.6,6.6,7.329,1.422-5.1,5.5Z"/>
  </g>
</svg>
